<svg width="442" height="135" viewBox="0 0 442 135" fill="none" xmlns="http://www.w3.org/2000/svg">
<path fillRule="evenodd" clipRule="evenodd" d="M55.7081 114.893C57.5612 114.893 59.2455 115.652 60.3967 116.944V115.174H61.9413V127.923C61.9413 129.805 61.7729 131.041 61.2394 132.052C60.3129 133.793 58.4877 135 55.6801 135C53.2373 135 51.1592 133.877 49.8676 131.94L51.131 131.012C52.0857 132.529 53.6584 133.484 55.7081 133.484C57.87 133.484 59.1893 132.557 59.8351 131.293C60.2281 130.507 60.3406 129.581 60.3406 127.98V126.154C59.3859 127.39 57.7857 128.261 55.7922 128.261C54.5849 128.261 53.2366 127.951 51.9731 127.053C50.2886 125.873 49.2499 123.88 49.2499 121.577C49.2499 119.443 50.1765 117.561 51.6366 116.325C52.7035 115.455 54.1639 114.893 55.7081 114.893ZM55.7362 116.396C54.6693 116.396 53.5461 116.761 52.6476 117.491C51.5245 118.417 50.8506 119.906 50.8506 121.563C50.8506 123.332 51.6365 124.905 52.872 125.775C53.6862 126.337 54.6692 126.73 55.7642 126.73C57.6454 126.73 59.3298 125.663 60.3406 123.922V118.98C59.779 118.025 58.0946 116.396 55.7362 116.396Z" fill="#1D1E56"/>
<path fillRule="evenodd" clipRule="evenodd" d="M110.826 114.893C112.679 114.893 114.364 115.652 115.515 116.944V115.174H117.06V127.923C117.06 129.805 116.891 131.041 116.357 132.052C115.431 133.793 113.606 135 110.798 135C108.355 135 106.277 133.877 104.985 131.94L106.249 131.012C107.204 132.529 108.776 133.484 110.826 133.484C112.988 133.484 114.308 132.557 114.953 131.293C115.347 130.507 115.459 129.58 115.459 127.98V126.154C114.504 127.39 112.904 128.261 110.91 128.261C109.703 128.261 108.355 127.951 107.092 127.053C105.407 125.873 104.368 123.88 104.368 121.577C104.368 119.443 105.294 117.561 106.754 116.325C107.821 115.455 109.282 114.893 110.826 114.893ZM110.854 116.396C109.787 116.396 108.664 116.761 107.765 117.491C106.642 118.417 105.968 119.906 105.968 121.563C105.968 123.332 106.754 124.905 107.99 125.775C108.804 126.337 109.787 126.73 110.882 126.73C112.763 126.73 114.448 125.663 115.459 123.922V118.98C114.897 118.025 113.212 116.396 110.854 116.396Z" fill="#1D1E56"/>
<path fillRule="evenodd" clipRule="evenodd" d="M22.4626 114.893C25.8881 114.893 28.4152 117.589 28.4153 121.156C28.4153 121.268 28.4153 121.465 28.3873 121.717H17.9423C18.0546 124.441 19.8236 126.744 22.7718 126.744C24.4565 126.744 25.8606 126.07 26.8714 124.834L27.9946 125.902C27.04 127.109 25.2146 128.261 22.7718 128.261C19.1778 128.261 16.3416 125.565 16.3416 121.577C16.3416 117.898 18.8406 114.893 22.4626 114.893ZM22.4626 116.396C20.2446 116.396 18.5038 118.025 18.0264 120.243H26.7592C26.4222 117.996 24.6808 116.396 22.4626 116.396Z" fill="#1D1E56"/>
<path d="M35.5754 114.893C37.3163 114.893 38.7484 115.483 39.7031 116.129L38.861 117.449C37.7659 116.747 36.9792 116.41 35.6596 116.41C34.34 116.41 32.8236 117.112 32.8234 118.6C32.8234 121.436 40.2086 119.92 40.2086 124.413C40.2086 126.8 38.1865 128.261 35.7717 128.261C33.6379 128.261 31.9251 127.474 30.802 126.435L31.785 125.2C32.88 126.126 34.2277 126.744 35.6596 126.744C37.26 126.744 38.6079 125.845 38.6079 124.497C38.6076 121.212 31.2234 123.009 31.2234 118.628C31.2236 116.297 33.4135 114.893 35.5754 114.893Z" fill="#1D1E56"/>
<path fillRule="evenodd" clipRule="evenodd" d="M151.034 114.893C154.46 114.893 156.987 117.589 156.987 121.156C156.987 121.268 156.987 121.465 156.959 121.717H146.513C146.626 124.441 148.395 126.744 151.343 126.744C153.028 126.744 154.432 126.07 155.443 124.834L156.566 125.902C155.611 127.109 153.786 128.261 151.343 128.261C147.749 128.261 144.913 125.565 144.913 121.577C144.913 117.898 147.412 114.893 151.034 114.893ZM151.034 116.396C148.816 116.396 147.075 118.025 146.598 120.243H155.33C154.993 117.997 153.253 116.396 151.034 116.396Z" fill="#1D1E56"/>
<path fillRule="evenodd" clipRule="evenodd" d="M188.519 114.893C191.945 114.893 194.472 117.589 194.472 121.156C194.472 121.268 194.472 121.465 194.444 121.717H183.999C184.111 124.441 185.88 126.744 188.828 126.744C190.513 126.744 191.917 126.07 192.928 124.834L194.051 125.902C193.096 127.109 191.271 128.261 188.828 128.261C185.234 128.261 182.398 125.565 182.398 121.577C182.398 117.898 184.897 114.893 188.519 114.893ZM188.519 116.396C186.301 116.396 184.56 118.025 184.083 120.243H192.815C192.478 117.997 190.737 116.396 188.519 116.396Z" fill="#1D1E56"/>
<path fillRule="evenodd" clipRule="evenodd" d="M282.835 114.893C286.261 114.893 288.788 117.589 288.788 121.156C288.788 121.268 288.788 121.465 288.76 121.717H278.314C278.426 124.441 280.196 126.744 283.144 126.744C284.828 126.744 286.232 126.07 287.243 124.834L288.366 125.902C287.412 127.109 285.586 128.261 283.144 128.261C279.55 128.261 276.714 125.565 276.714 121.577C276.714 117.898 279.213 114.893 282.835 114.893ZM282.835 116.396C280.617 116.396 278.876 118.025 278.399 120.243H287.131C286.794 117.997 285.053 116.396 282.835 116.396Z" fill="#1D1E56"/>
<path d="M295.948 114.893C297.689 114.893 299.121 115.483 300.076 116.129L299.233 117.449C298.138 116.747 297.352 116.41 296.033 116.41C294.713 116.41 293.197 117.112 293.197 118.6C293.197 121.436 300.581 119.92 300.581 124.413C300.581 126.8 298.56 128.261 296.145 128.261C294.011 128.261 292.298 127.474 291.174 126.435L292.158 125.2C293.253 126.127 294.601 126.744 296.033 126.744C297.633 126.744 298.98 125.845 298.98 124.497C298.98 121.212 291.596 123.009 291.596 118.628C291.596 116.298 293.786 114.893 295.948 114.893Z" fill="#1D1E56"/>
<path fillRule="evenodd" clipRule="evenodd" d="M12.6914 127.979H11.1475V126.098C10.1929 127.39 8.53593 128.26 6.54239 128.26C5.33507 128.26 3.98743 127.951 2.72395 127.053C1.03929 125.873 6.25314e-05 123.88 0 121.577C0 119.443 0.926615 117.561 2.3867 116.325C3.45368 115.455 4.91395 114.893 6.45825 114.893C8.22704 114.893 9.8834 115.595 11.0907 116.887V108.041H12.6914V127.979ZM6.4863 116.395C5.4194 116.395 4.29623 116.761 3.39775 117.491C2.27461 118.417 1.60072 119.906 1.60072 121.563C1.60079 123.332 2.38672 124.905 3.62212 125.775C4.43637 126.337 5.41934 126.73 6.51434 126.73C8.39551 126.73 10.0799 125.663 11.0907 123.922V118.98C10.5292 118.025 8.84482 116.396 6.4863 116.395Z" fill="#1D1E56"/>
<path fillRule="evenodd" clipRule="evenodd" d="M131.015 116.887C132.222 115.595 133.878 114.893 135.647 114.893C137.191 114.893 138.652 115.455 139.719 116.325C141.179 117.561 142.105 119.443 142.105 121.577C142.105 123.88 141.066 125.873 139.381 127.053C138.118 127.951 136.77 128.26 135.563 128.26C133.569 128.26 131.913 127.39 130.958 126.098V127.979H129.414V108.041H131.015V116.887ZM135.619 116.409C133.261 116.41 131.576 118.039 131.015 118.994V123.936C132.025 125.677 133.71 126.744 135.591 126.744C136.686 126.744 137.669 126.351 138.483 125.789C139.719 124.919 140.505 123.346 140.505 121.577C140.505 119.92 139.831 118.431 138.708 117.505C137.809 116.775 136.686 116.409 135.619 116.409Z" fill="#1D1E56"/>
<path d="M226.959 121.745C226.959 123.542 227.239 124.385 227.689 125.059C228.362 126.07 229.514 126.744 230.918 126.744C232.659 126.744 234.344 125.677 235.186 124.077V115.174H236.786V127.979H235.242V126.238C234.344 127.418 232.687 128.26 230.918 128.26C228.812 128.26 227.043 127.249 226.117 125.621C225.639 124.75 225.358 123.711 225.358 121.998V115.174H226.959V121.745Z" fill="#1D1E56"/>
<path d="M253.83 121.745C253.83 123.542 254.111 124.385 254.56 125.059C255.234 126.07 256.386 126.744 257.789 126.744C259.53 126.744 261.215 125.677 262.057 124.077V115.174H263.657V127.979H262.113V126.238C261.215 127.418 259.558 128.26 257.789 128.26C255.684 128.26 253.915 127.249 252.988 125.621C252.511 124.75 252.229 123.711 252.229 121.998V115.174H253.83V121.745Z" fill="#1D1E56"/>
<path d="M163.586 115.16H167.938V116.676H163.586V123.697C163.586 124.848 163.81 125.41 164.147 125.831C164.596 126.393 165.326 126.73 166.281 126.73C166.646 126.73 167.18 126.702 167.657 126.561L167.938 128.022C167.516 128.162 166.786 128.246 166.281 128.246C165.102 128.246 163.726 127.881 162.856 126.786C162.294 126.084 161.985 125.157 161.985 123.641V116.676H158.391V115.16H161.985V111.678H163.586V115.16Z" fill="#1D1E56"/>
<path d="M175.659 115.16H180.011V116.676H175.659V123.697C175.659 124.848 175.884 125.41 176.221 125.831C176.67 126.393 177.4 126.73 178.355 126.73C178.72 126.73 179.254 126.702 179.731 126.561L180.011 128.022C179.59 128.162 178.86 128.246 178.355 128.246C177.175 128.246 175.8 127.881 174.929 126.786C174.368 126.084 174.059 125.157 174.059 123.641V116.676H170.465V115.16H174.059V111.678H175.659V115.16Z" fill="#1D1E56"/>
<path d="M244.508 115.16H248.86V116.676H244.508V123.697C244.508 124.848 244.732 125.41 245.069 125.831C245.519 126.393 246.249 126.73 247.204 126.73C247.569 126.73 248.102 126.702 248.579 126.561L248.86 128.022C248.439 128.162 247.709 128.246 247.204 128.246C246.024 128.246 244.648 127.881 243.778 126.786C243.216 126.084 242.908 125.157 242.908 123.641V116.676H239.314V115.16H242.908V111.678H244.508V115.16Z" fill="#1D1E56"/>
<path d="M45.5997 127.966H43.999V115.16H45.5997V127.966Z" fill="#1D1E56"/>
<path d="M72.7796 114.879C74.5766 114.879 76.289 115.638 77.3279 117.042C78.0299 117.969 78.4231 119.036 78.4231 121.142V127.966H76.8231V121.254C76.8231 119.569 76.5417 118.755 76.0925 118.109C75.3625 117.042 74.1554 116.396 72.7515 116.396C70.8984 116.396 69.2975 117.379 68.3147 119.064V127.966H66.7147V115.16H68.2586V116.958C69.2975 115.582 70.9826 114.879 72.7796 114.879Z" fill="#1D1E56"/>
<path d="M84.5168 127.966H82.9161V115.16H84.5168V127.966Z" fill="#1D1E56"/>
<path d="M95.3551 114.879C97.152 114.879 98.8646 115.638 99.9034 117.042C100.605 117.969 100.999 119.036 100.999 121.142V127.966H99.3979V121.254C99.3979 119.569 99.1172 118.755 98.668 118.109C97.938 117.042 96.7303 116.396 95.3263 116.396C93.4733 116.396 91.8729 117.379 90.8902 119.064V127.966H89.2895V115.16H90.8341V116.958C91.873 115.582 93.5581 114.879 95.3551 114.879Z" fill="#1D1E56"/>
<path d="M203.766 114.879C203.991 114.879 204.552 114.907 204.72 114.935L204.496 116.424C204.328 116.396 203.823 116.396 203.738 116.396C201.997 116.396 200.397 117.576 199.723 119.232V127.966H198.122V115.16H199.723V116.845C200.312 115.946 201.773 114.879 203.766 114.879Z" fill="#1D1E56"/>
<path d="M274.075 114.879C274.3 114.879 274.861 114.907 275.029 114.935L274.805 116.424C274.637 116.396 274.132 116.396 274.047 116.396C272.306 116.396 270.705 117.576 270.031 119.232V127.966H268.431V115.16H270.031V116.845C270.621 115.946 272.081 114.879 274.075 114.879Z" fill="#1D1E56"/>
<path d="M221.455 107.747C221.876 107.747 222.298 107.802 222.691 107.887L222.382 109.376C222.073 109.291 221.764 109.263 221.427 109.263C220.389 109.263 219.49 109.656 218.928 110.47C218.563 111.004 218.339 111.622 218.339 113.138V115.16H222.691V116.676H218.339V127.965H216.738V116.676H213.425V115.16H216.738V113.222C216.738 111.257 217.131 110.133 217.805 109.319C218.676 108.28 219.995 107.747 221.455 107.747Z" fill="#1D1E56"/>
<path d="M44.785 109.291C45.5712 109.291 46.2174 109.937 46.2174 110.724C46.2172 111.51 45.5711 112.128 44.785 112.128C43.999 112.128 43.3814 111.51 43.3813 110.724C43.3813 109.937 43.9989 109.291 44.785 109.291Z" fill="#1D1E56"/>
<path d="M83.702 109.291C84.4882 109.291 85.1345 109.937 85.1345 110.724C85.1343 111.51 84.4881 112.128 83.702 112.128C82.916 112.128 82.2985 111.51 82.2983 110.724C82.2983 109.937 82.9159 109.291 83.702 109.291Z" fill="#1D1E56"/>
<path fillRule="evenodd" clipRule="evenodd" d="M57.5612 36.0619C71.6426 36.0619 82.0319 46.3261 82.0319 62.5575C82.0319 80.9372 71.4041 100.033 51.2439 100.033C37.4932 100.033 26.8713 90.659 26.5426 74.6561L26.5341 73.9026C26.5342 55.2842 37.4009 36.0619 57.5612 36.0619ZM57.4491 39.179C39.9001 39.179 30.1143 56.3653 30.1142 73.6778C30.1142 87.761 38.5945 96.9583 51.2439 96.9583C68.9051 96.9581 78.4519 79.6455 78.4519 62.8244V62.8104C78.4519 49.0782 70.5757 39.1791 57.4491 39.179Z" fill="#1D1E56"/>
<path d="M155.164 0C166.269 0.000103168 175.184 7.47003 175.184 18.0289C175.184 26.1867 170.523 30.9888 164.556 30.9888C160.106 30.9888 156.877 28.1804 156.877 23.7154C156.877 18.8431 160.092 16.6525 165.034 15.6275C168.599 14.8693 170.523 14.0551 170.523 10.4186C170.523 5.6165 165.862 1.85373 159.699 1.85373C152.426 1.8538 147.147 7.06264 147.147 17.6213V35.6501H155.445C163.461 35.6501 170.874 35.51 178.062 34.9624C178.469 34.9625 178.75 35.1729 178.75 35.6501V83.6426C178.75 90.0874 180.94 94.6088 186.5 94.6088C192.873 94.6086 195.681 88.5708 195.681 82.5473V44.4257C195.681 38.4584 194.726 36.3385 189.715 36.3385H188.957C188.746 36.3385 188.619 36.1976 188.619 36.001C188.619 35.8046 188.76 35.6641 188.957 35.6641C196.973 35.6641 204.385 35.524 211.573 34.9764C211.981 34.9764 212.261 35.1868 212.261 35.6641V86.268C212.261 92.2354 213.708 95.0443 218.705 95.0443H219.59C219.801 95.0445 219.927 95.1847 219.927 95.3812C219.927 95.5776 219.787 95.7179 219.59 95.718C214.789 96.055 202.518 97.7121 198.264 98.7371C197.1 99.0178 197.029 99.0179 196.819 99.0179C196.482 99.0179 196.341 98.8071 196.341 98.5403V95.662C196.341 92.7836 196.341 91.0703 196.481 87.0265H195.793C194.291 94.6367 187.847 99.7056 178.581 99.7056C169.315 99.7055 162.127 94.2155 162.127 83.5305L162.169 83.4885V44.4117C162.169 38.4444 161.215 36.3245 156.203 36.3245H147.147V87.8829C147.147 94.5384 150.166 98.0347 155.164 98.0347H155.992C156.203 98.0347 156.329 98.1751 156.329 98.3715C156.329 98.5681 156.189 98.7091 155.992 98.7091H123.913C123.702 98.7091 123.575 98.5681 123.575 98.3715C123.576 98.1611 123.716 98.0347 123.913 98.0347H124.797C129.121 98.0347 130.553 94.5387 130.553 88.5714V36.3245H123.829C123.618 36.3245 123.491 36.1835 123.491 35.987C123.492 35.7906 123.632 35.6501 123.829 35.6501H130.553V26.1868C130.553 9.18304 140.704 0 155.164 0Z" fill="#1D1E56"/>
<path d="M293.366 34.9624C293.773 34.9624 294.054 35.1728 294.054 35.6501V83.6426C294.054 90.0873 296.244 94.6087 301.804 94.6088C308.178 94.6088 310.986 88.5709 310.986 82.5473V44.4257C310.986 38.4585 310.031 36.3386 305.019 36.3385H304.261C304.05 36.3384 303.924 36.1975 303.924 36.001C303.924 35.8046 304.064 35.6642 304.261 35.6641C312.277 35.6641 319.69 35.524 326.878 34.9764C327.285 34.9764 327.566 35.1869 327.566 35.6641V86.268C327.566 92.2355 329.012 95.0443 334.01 95.0443H334.894C335.105 95.0443 335.232 95.1846 335.232 95.3812C335.232 95.5777 335.091 95.718 334.894 95.718C330.093 96.0551 317.823 97.7121 313.569 98.7371C312.404 99.0179 312.333 99.0179 312.123 99.0179C311.786 99.0178 311.646 98.807 311.646 98.5403V95.662C311.646 92.7836 311.646 91.0703 311.786 87.0265H311.098C309.596 94.6367 303.152 99.7056 293.886 99.7056C284.62 99.7056 277.432 94.2156 277.432 83.5305L277.474 83.4885V44.4117C277.474 38.4444 276.519 36.3245 271.507 36.3245H270.749C270.539 36.3245 270.412 36.1835 270.412 35.987C270.412 35.7905 270.553 35.6501 270.749 35.6501C278.766 35.6501 286.178 35.51 293.366 34.9624Z" fill="#1D1E56"/>
<path d="M242.306 13.3108C242.502 13.311 242.643 13.4513 242.643 13.6477V35.6501H267.113C267.324 35.6502 267.45 35.7905 267.45 35.987C267.45 36.1835 267.31 36.3238 267.113 36.3238H242.643V72.8731C242.643 82.6737 248.202 87.7567 255.46 87.7569C262.718 87.7569 268.685 82.4071 268.685 73.9124C268.685 68.7736 265.808 65.0666 262.719 62.8762C262.172 62.469 261.764 62.0475 261.764 61.5701C261.764 61.0928 262.101 60.7417 262.592 60.7416C263.14 60.7416 263.547 61.0227 264.305 61.7669C266.158 63.6905 269.374 67.8043 269.374 75.2738C269.374 88.1635 260.739 99.6776 247.444 99.6776C235.104 99.6776 226.063 90.6207 226.063 75.5406V36.3238H219.408C219.197 36.3238 219.071 36.1835 219.071 35.987C219.071 35.7905 219.212 35.6501 219.408 35.6501H220.236C230.794 35.6501 241.969 25.3016 241.969 14.2654V13.6477C241.969 13.4372 242.11 13.3108 242.306 13.3108Z" fill="#1D1E56"/>
<path fillRule="evenodd" clipRule="evenodd" d="M415.466 34.6816C429.238 34.6816 437.058 39.5536 441.172 48.1185L440.891 48.6661H399.419C398.254 52.1623 397.496 56.5573 397.495 61.6962C397.495 76.6359 406.748 88.9782 421.012 88.9782C432.875 88.9781 441.172 80.8906 441.172 71.427C441.172 67.1726 439.529 65.1927 439.529 64.0975C439.529 63.5499 439.81 63.213 440.358 63.213C441.593 63.2134 442 66.3726 442 69.3772C442 83.6429 431.92 99.6776 411.844 99.6776C394.014 99.6775 381.547 86.5067 381.547 68.478H381.533C381.533 48.2591 395.306 34.6817 415.466 34.6816ZM414.652 35.3693C409.036 35.3693 402.789 39.2028 399.644 47.9784H421.362C423.974 47.9784 424.928 47.0938 424.928 45.1702C424.928 40.2979 421.363 35.3693 414.652 35.3693Z" fill="#1D1E56"/>
<path d="M111.613 37.5221C114.715 36.806 117.93 36.6797 119.727 36.9184L119.139 40.3723H119.025C117.593 40.26 114.968 40.1338 112.342 40.6111C102.796 42.0433 94.0773 53.6273 91.9293 64.6074L85.3588 98.8681H81.7788L93.7123 37.1572H97.2923L94.316 52.5606H94.4282C97.8818 45.6383 103.259 39.4316 111.613 37.5221Z" fill="#1D1E56"/>
<path d="M31.6728 12.9082C32.5014 12.9082 35.8424 12.9079 36.5724 13.0202L35.8566 16.2361V16.2641C35.267 16.1517 32.4033 16.0253 31.5607 16.0253C25.945 16.0253 22.8421 17.9348 21.5364 24.8569L19.0235 37.1572H31.9112L31.3216 40.2603H18.4338L7.08998 98.8674H3.50993L14.9659 40.2463H6.24791L6.83757 37.1432H15.4294L17.9423 24.366C19.7393 15.6465 24.1478 12.9082 31.6728 12.9082Z" fill="#1D1E56"/>
<path d="M374.261 34.6816C378.782 34.6816 382.895 37.6303 382.895 43.1204C382.895 47.7117 379.876 51.4184 375.075 51.4184C371.369 51.4183 369.586 49.4949 368.154 47.9224C367.059 46.6868 366.104 45.6618 364.728 45.6618C362.735 45.6619 358.425 48.47 358.425 65.5437V87.897C358.425 94.5524 361.443 98.0487 366.441 98.0487H367.269C367.48 98.0487 367.606 98.1891 367.606 98.3855C367.606 98.5821 367.466 98.7231 367.269 98.7231H335.19C334.979 98.7231 334.852 98.5821 334.852 98.3855V98.3715C334.852 98.1611 334.993 98.0347 335.19 98.0347H336.074C340.398 98.0347 341.83 94.5387 341.83 88.5714V44.4117C341.83 38.4444 340.875 36.3245 335.863 36.3245H334.979C334.769 36.3245 334.642 36.1835 334.642 35.987C334.642 35.7906 334.783 35.6501 334.979 35.6501C342.995 35.6501 350.534 35.51 357.736 34.9624C358.143 34.9624 358.425 35.1728 358.425 35.6501V44.3557C358.425 46.8971 358.354 50.3936 358.017 54.1566H358.705C360.629 41.6741 367.073 34.6816 374.261 34.6816Z" fill="#1D1E56"/>
<path d="M119.137 40.3863L119.139 40.3723H119.151L119.137 40.3863Z" fill="#1D1E56"/>
</svg>
